<svg width="40" height="41" viewBox="0 0 40 41" fill="none" xmlns="http://www.w3.org/2000/svg">
<g clip-path="url(#clip0_87_67700)">
<path d="M2.50005 3.05147C-0.643281 6.29155 5.23552e-05 9.73341 5.23552e-05 20.1896C5.23552e-05 28.8728 -1.52661 37.5775 6.46339 39.6268C8.95839 40.2636 31.0651 40.2636 33.5567 39.6235C36.8834 38.7717 39.5901 36.094 39.9601 31.4249C40.0117 30.7732 40.0117 9.61763 39.9584 8.95274C39.5651 3.97934 36.4801 1.11305 32.4151 0.532516C31.4834 0.398546 31.2967 0.358852 26.5167 0.350582C9.56172 0.358852 5.84505 -0.390385 2.50005 3.05147Z" fill="url(#paint0_linear_87_67700)"/>
<path d="M19.9967 5.54295C13.945 5.54295 8.19835 5.00873 6.00335 10.5991C5.09668 12.908 5.22835 15.9066 5.22835 20.2002C5.22835 23.9679 5.10668 27.509 6.00335 29.7997C8.19335 35.3933 13.9867 34.8575 19.9933 34.8575C25.7883 34.8575 31.7633 35.4562 33.985 29.7997C34.8933 27.4676 34.76 24.5137 34.76 20.2002C34.76 14.4743 35.0783 10.7777 32.28 8.00237C29.4467 5.19066 25.615 5.54295 19.99 5.54295H19.9967ZM18.6733 8.1843C31.2967 8.16445 32.9033 6.77184 32.0167 26.118C31.7017 32.9604 26.4517 32.2095 19.9983 32.2095C8.23168 32.2095 7.89335 31.8754 7.89335 20.1936C7.89335 8.37616 8.82668 8.19092 18.6733 8.18099V8.1843ZM27.88 10.6173C26.9017 10.6173 26.1083 11.4045 26.1083 12.3754C26.1083 13.3463 26.9017 14.1335 27.88 14.1335C28.8583 14.1335 29.6517 13.3463 29.6517 12.3754C29.6517 11.4045 28.8583 10.6173 27.88 10.6173ZM19.9967 12.6731C15.8083 12.6731 12.4133 16.0438 12.4133 20.2002C12.4133 24.3566 15.8083 27.7257 19.9967 27.7257C24.185 27.7257 27.5783 24.3566 27.5783 20.2002C27.5783 16.0438 24.185 12.6731 19.9967 12.6731ZM19.9967 15.3145C26.505 15.3145 26.5133 25.086 19.9967 25.086C13.49 25.086 13.48 15.3145 19.9967 15.3145Z" fill="white"/>
</g>
<defs>
<linearGradient id="paint0_linear_87_67700" x1="2.57675" y1="37.5099" x2="39.5082" y2="5.30023" gradientUnits="userSpaceOnUse">
<stop stop-color="#FFDD55"/>
<stop offset="0.5" stop-color="#FF543E"/>
<stop offset="1" stop-color="#C837AB"/>
</linearGradient>
<clipPath id="clip0_87_67700">
<rect width="40" height="39.6947" fill="white" transform="translate(0 0.351074)"/>
</clipPath>
</defs>
</svg>
