<svg width="40" height="41" viewBox="0 0 40 41" fill="none" xmlns="http://www.w3.org/2000/svg">
<g clip-path="url(#clip0_87_67747)">
<path d="M14.7383 21.585C12.4183 21.585 10.5366 23.4666 10.5366 25.7866V36.2966C10.5366 38.6166 12.4183 40.4983 14.7383 40.4983C17.0583 40.4983 18.9399 38.6166 18.9399 36.2966V25.7866C18.9383 23.4666 17.0566 21.585 14.7383 21.585Z" fill="#E91E63"/>
<path d="M0.0317383 25.7865C0.0317383 28.1082 1.91507 29.9915 4.23674 29.9915C6.5584 29.9915 8.44174 28.1082 8.44174 25.7865V21.5815H4.24007C4.2384 21.5815 4.2384 21.5815 4.23674 21.5815C1.91507 21.5815 0.0317383 23.4649 0.0317383 25.7865Z" fill="#E91E63"/>
<path d="M14.7433 0.498535C14.7417 0.498535 14.74 0.498535 14.7383 0.498535C12.4167 0.498535 10.5333 2.38187 10.5333 4.70354C10.5333 7.0252 12.4167 8.90854 14.7383 8.90854H18.94V4.70354C18.94 4.70187 18.94 4.69853 18.94 4.6952C18.9383 2.37687 17.06 0.498535 14.7433 0.498535Z" fill="#36C5F0"/>
<path d="M4.20842 19.45H14.7384C17.0601 19.45 18.9434 17.5667 18.9434 15.245C18.9434 12.9234 17.0601 11.04 14.7384 11.04H4.20842C1.88675 11.04 0.00341797 12.9234 0.00341797 15.245C0.00341797 17.5667 1.88675 19.45 4.20842 19.45Z" fill="#36C5F0"/>
<path d="M35.7617 11.0386C33.4433 11.0386 31.565 12.9169 31.565 15.2352V15.2436V19.4486H35.7667C38.0883 19.4486 39.9717 17.5652 39.9717 15.2436C39.9717 12.9219 38.0883 11.0386 35.7667 11.0386C35.765 11.0386 35.7633 11.0386 35.7617 11.0386Z" fill="#4CAF50"/>
<path d="M21.0683 4.70313V15.2448C21.0683 17.5648 22.95 19.4465 25.27 19.4465C27.59 19.4465 29.4716 17.5648 29.4716 15.2448V4.70313C29.4716 2.38313 27.59 0.501465 25.27 0.501465C22.95 0.501465 21.0683 2.38313 21.0683 4.70313Z" fill="#4CAF50"/>
<path d="M29.47 36.2935C29.47 33.9735 27.5884 32.0918 25.2684 32.0918H21.0667V36.2968C21.0684 38.6151 22.9484 40.4951 25.2684 40.4951C27.5884 40.4951 29.47 38.6135 29.47 36.2935Z" fill="#FF9800"/>
<path d="M35.7984 21.5815H25.2684C22.9468 21.5815 21.0634 23.4649 21.0634 25.7865C21.0634 28.1082 22.9468 29.9915 25.2684 29.9915H35.7984C38.1201 29.9915 40.0035 28.1082 40.0035 25.7865C40.0035 23.4649 38.1201 21.5815 35.7984 21.5815Z" fill="#FF9800"/>
</g>
<defs>
<clipPath id="clip0_87_67747">
<rect width="40" height="40" fill="white" transform="translate(0 0.5)"/>
</clipPath>
</defs>
</svg>
