<svg width="20" height="20" viewBox="0 0 20 20" fill="none" xmlns="http://www.w3.org/2000/svg">
<g clip-path="url(#clip0_87_67841)">
<path d="M7.36911 10.543C6.20911 10.543 5.26828 11.4838 5.26828 12.6438V17.8988C5.26828 19.0588 6.20911 19.9996 7.36911 19.9996C8.52911 19.9996 9.46994 19.0588 9.46994 17.8988V12.6438C9.46911 11.4838 8.52828 10.543 7.36911 10.543Z" fill="#B4B6C4"/>
<path d="M0.0158691 12.6435C0.0158691 13.8043 0.957536 14.746 2.11837 14.746C3.2792 14.746 4.22087 13.8043 4.22087 12.6435V10.541H2.12004C2.1192 10.541 2.1192 10.541 2.11837 10.541C0.957536 10.541 0.0158691 11.4827 0.0158691 12.6435Z" fill="#B4B6C4"/>
<path d="M7.37169 -0.000976562C7.37086 -0.000976562 7.37002 -0.000976562 7.36919 -0.000976562C6.20836 -0.000976562 5.26669 0.94069 5.26669 2.10152C5.26669 3.26236 6.20836 4.20402 7.36919 4.20402H9.47002V2.10152C9.47002 2.10069 9.47002 2.09902 9.47002 2.09736C9.46919 0.93819 8.53002 -0.000976562 7.37169 -0.000976562Z" fill="#B4B6C4"/>
<path d="M2.10418 9.47453H7.36918C8.53001 9.47453 9.47168 8.53286 9.47168 7.37203C9.47168 6.2112 8.53001 5.26953 7.36918 5.26953H2.10418C0.943345 5.26953 0.00167847 6.2112 0.00167847 7.37203C0.00167847 8.53286 0.943345 9.47453 2.10418 9.47453Z" fill="#B4B6C4"/>
<path d="M17.8808 5.26953C16.7217 5.26953 15.7825 6.2087 15.7825 7.36786V7.37203V9.47453H17.8833C19.0442 9.47453 19.9858 8.53286 19.9858 7.37203C19.9858 6.2112 19.0442 5.26953 17.8833 5.26953C17.8825 5.26953 17.8817 5.26953 17.8808 5.26953Z" fill="#B4B6C4"/>
<path d="M10.5341 2.10181V7.37264C10.5341 8.53264 11.475 9.47348 12.635 9.47348C13.795 9.47348 14.7358 8.53264 14.7358 7.37264V2.10181C14.7358 0.94181 13.795 0.000976562 12.635 0.000976562C11.475 0.000976562 10.5341 0.94181 10.5341 2.10181Z" fill="#B4B6C4"/>
<path d="M14.735 17.8967C14.735 16.7367 13.7941 15.7959 12.6341 15.7959H10.5333V17.8984C10.5341 19.0576 11.4741 19.9976 12.6341 19.9976C13.7941 19.9976 14.735 19.0567 14.735 17.8967Z" fill="#B4B6C4"/>
<path d="M17.8992 10.541H12.6342C11.4733 10.541 10.5317 11.4827 10.5317 12.6435C10.5317 13.8043 11.4733 14.746 12.6342 14.746H17.8992C19.06 14.746 20.0017 13.8043 20.0017 12.6435C20.0017 11.4827 19.06 10.541 17.8992 10.541Z" fill="#B4B6C4"/>
</g>
<defs>
<clipPath id="clip0_87_67841">
<rect width="20" height="20" fill="white"/>
</clipPath>
</defs>
</svg>
